<svg version="1.0" xmlns="http://www.w3.org/2000/svg" width="1365.333" height="1365.333" viewBox="0 0 1024 1024"><path d="M568.5 154.7c-26.4 3.2-50.4 10.2-71.5 20.8-9.3 4.7-181.3 113.6-196.1 124.1-22.5 16.2-44.1 42-57.5 68.7-13.2 26.2-18.8 49-20.1 80.9-1.2 32.4 4.9 62.2 19.5 93.7l2.9 6.5-4.7 8c-30.1 51.2-35 116-12.9 172.7 7.6 19.5 15.7 33.8 29.5 52.1 33.1 43.6 81.8 73.3 137.9 83.9 15.9 3.1 50.9 3.8 67.2 1.4 14.1-2 31.1-6.2 43-10.6 20.8-7.6 28.4-12.2 201.8-122.9 16.8-10.7 22.7-15.3 35.2-27.3 28.1-27.1 48.6-65.2 54.8-101.7 7.4-43.5 2.9-81.4-14.4-120l-4.9-11 4.1-6.7c12.2-20.7 21-45.2 25.3-70.8 2.3-13.6 2.3-45 0-59.5-7.2-45.8-26.8-84-60.6-118-34.3-34.6-82.1-57.9-129.9-63.5-11.2-1.3-40.5-1.8-48.6-.8zm41 81.4c40.3 4.8 73.5 25.4 96.2 59.8 14.7 22.2 21.2 46 19.9 72.6-.3 7.1-1.2 15.7-1.9 19-2.3 9.7-5.9 21.5-6.7 21.5-.4 0-7.1-4.3-14.9-9.5-16.6-11.2-33.7-19.8-51.6-26l-13-4.5.3-5.9c.7-11.5-4.7-24.4-13.3-32-2.2-1.9-6.9-4.8-10.5-6.5-5.8-2.7-7.5-3.1-15.5-3.1s-9.7.4-15.5 3.1c-9.3 4.4-172.7 108.8-177.3 113.2-13.6 13.2-14.1 33.9-1.2 49.7 7.7 9.4 19.3 14 32.9 13.3 10.3-.6 10.6-.7 50.3-26.2 37-23.6 43.6-27.3 55.8-31.4 15.9-5.4 24.3-6.7 42.5-6.7 13.3.1 18.5.5 27 2.4 28.5 6.2 52.8 20.4 71.6 41.9 21.9 25 32.6 52.2 32.5 82.7-.1 13.6-1.2 22.3-4.5 33.6-7.3 25.2-23.7 48.2-44.6 62.5-16.9 11.6-176.1 112.4-182.7 115.8-15.3 7.6-30.7 11.5-49.4 12.3-22.3 1-42.9-3-62.5-12.2-13.9-6.5-25.4-14.6-36.9-26-21.1-20.9-34-46.4-37.6-74-1.3-10.3-.6-30.8 1.5-40 1.3-6 5.6-20.7 6.2-21.4.2-.2 7 4.1 15.1 9.5 17.8 12 33.2 19.7 51.4 25.9l13.7 4.7-.5 5.6c-1.7 18.4 11.3 36.1 30 41.2 6.4 1.7 18 .9 24-1.8 8.2-3.6 174.9-110.4 179.1-114.7 2.1-2.2 5.1-6.5 6.5-9.5 2.2-4.7 2.6-6.8 2.5-14.5 0-7.9-.4-9.8-3.1-15.5-3.3-7.1-11.2-15.4-17.9-18.8-9.5-4.7-23.6-5.4-32.4-1.5-2.5 1.1-19.1 11.4-37 22.8-43.8 28.1-50 31.3-71.3 36.6-11.9 3-34.9 3.7-48.7 1.5-19.6-3.1-42.8-12.7-57.7-23.8-10.2-7.7-25-23.1-32.1-33.6-10.4-15.3-16.7-30.9-19.8-49.1-2.4-13.8-1.5-37.1 2-49.6 7.7-28.2 24-51.4 46.7-66.6 15.1-10.1 169.2-108.2 177-112.6 21.2-12.1 49-17.4 75.4-14.2z"/></svg>